<svg id="png" xmlns="http://www.w3.org/2000/svg" width="525" height="600" viewBox="0 0 525 600">
  <path id="Path_393" data-name="Path 393" d="M133.5,0A37.61,37.61,0,0,0,96,37.5v525A37.61,37.61,0,0,0,133.5,600h375A37.61,37.61,0,0,0,546,562.5V150L396,0Z" transform="translate(-21)" fill="#e2e5e7"/>
  <path id="Path_394" data-name="Path 394" d="M389.5,150H502L352,0V112.5A37.61,37.61,0,0,0,389.5,150Z" transform="translate(23)" fill="#b0b7bd"/>
  <path id="Path_395" data-name="Path 395" d="M496.5,240.5,384,128H496.5Z" transform="translate(28.5 22)" fill="#cad1d8"/>
  <path id="Path_396" data-name="Path 396" d="M482,446.25A18.805,18.805,0,0,1,463.25,465H50.75A18.805,18.805,0,0,1,32,446.25V258.75A18.805,18.805,0,0,1,50.75,240h412.5A18.805,18.805,0,0,1,482,258.75Z" transform="translate(-32 41.25)" fill="#a066aa"/>
  <g id="Group_421" data-name="Group 421" transform="translate(71.269 343.575)">
    <path id="Path_397" data-name="Path 397" d="M92.816,304.673A10.319,10.319,0,0,1,103,294.3h34.65c19.481,0,37.031,13.05,37.031,38.081,0,23.7-17.55,36.881-37.031,36.881H112.578v19.8c0,6.619-4.162,10.35-9.581,10.35a10.106,10.106,0,0,1-10.181-10.35S92.816,304.673,92.816,304.673Zm19.762,8.531v37.331h25.05c10.031,0,17.981-8.85,17.981-18.15,0-10.5-7.95-19.181-17.981-19.181Z" transform="translate(-92.816 -292.992)" fill="#fff"/>
    <path id="Path_398" data-name="Path 398" d="M178.979,306.173c0-5.419,1.2-10.65,9-10.65,5.381,0,6.6,1.35,10.631,5.231l49.612,62.081V304.673c0-4.95,4.331-10.369,9.45-10.369,5.4,0,10.631,5.419,10.631,10.369v84.394c0,6.619-4.05,9.131-7.95,10.35-5.231,0-7.8-1.2-12.131-5.231L198.61,331.2v57.881c0,6.619-4.05,10.35-9.45,10.35s-10.2-3.731-10.2-10.35V306.173Z" transform="translate(-78.01 -292.992)" fill="#fff"/>
    <path id="Path_399" data-name="Path 399" d="M364.745,388.078c-10.65,8.831-23.7,12.6-36.881,12.6-31.5,0-53.831-18-53.831-53.681,0-30.281,23.55-53.812,55.163-53.812,11.85,0,24.881,4.05,34.181,13.2,9.15,8.981-4.05,22.331-13.031,14.4-5.55-5.419-13.35-9.45-21.15-9.45-18.131,0-35.663,14.531-35.663,35.663,0,22.2,14.681,35.681,34.331,35.681,9.131,0,16.931-2.7,22.481-6.75V357.515H327.863c-13.35,0-12-18.319,0-18.319h29.981c5.55,0,10.631,4.219,10.631,8.869V380C368.476,382.678,367.294,385.209,364.745,388.078Z" transform="translate(-61.669 -293.184)" fill="#fff"/>
  </g>
  <path id="Path_400" data-name="Path 400" d="M452.25,434.75H96V453.5H452.25A18.805,18.805,0,0,0,471,434.75V416A18.805,18.805,0,0,1,452.25,434.75Z" transform="translate(-21 71.5)" fill="#cad1d8"/>
</svg>
