<svg id="Layer_2_1_" xmlns="http://www.w3.org/2000/svg" width="615.385" height="600" viewBox="0 0 615.385 600">
  <g id="Surfaces">
    <g id="Drawing_Surface">
      <g id="Outline_no_shadow">
        <path id="Path_393" data-name="Path 393" d="M108.974,0H506.41A108.883,108.883,0,0,1,615.384,108.974V491.026A108.883,108.883,0,0,1,506.41,600H108.974A108.883,108.883,0,0,1,0,491.026V108.974A108.883,108.883,0,0,1,108.974,0Z" fill="#300"/>
      </g>
    </g>
  </g>
  <g id="Outlined_Mnemonics_Logos" transform="translate(130.813 135.987)">
    <g id="Ai">
      <path id="Path_394" data-name="Path 394" d="M216.669,261.517H123.5l-19.035,58.857a4.383,4.383,0,0,1-4.759,3.506H52.62c-2.755,0-3.506-1.5-2.755-4.508L130.512,87.2c.751-2.5,1.5-5.26,2.5-8.265a87.483,87.483,0,0,0,1.5-16.28,2.482,2.482,0,0,1,2-2.755h64.868c2,0,3.005.751,3.256,2l91.417,257.97c.751,2.755,0,4.007-2.5,4.007H241.214a3.781,3.781,0,0,1-4.007-2.755Zm-78.643-50.843h63.616c-1.5-5.26-3.506-11.521-5.76-18.033-2.254-6.762-4.508-14.026-6.762-21.539-2.5-7.764-4.759-15.278-7.263-23.042s-4.759-15.027-6.762-22.291c-2-7.013-3.757-13.525-5.51-19.536h-.5a307.516,307.516,0,0,1-8.516,32.309c-3.757,12.022-7.514,24.545-11.521,37.068-3.506,12.773-7.263,24.545-11.02,35.064Z" transform="translate(-49.59 -39.864)" fill="#ff9a00"/>
      <path id="Path_395" data-name="Path 395" d="M188.315,114.765A31,31,0,0,1,166.024,106a32.537,32.537,0,0,1-8.516-23.042,29.466,29.466,0,0,1,9.016-22.291A32.075,32.075,0,0,1,188.816,51.9c9.768,0,17.281,3.005,22.792,8.766a31.62,31.62,0,0,1,8.265,22.291A31.7,31.7,0,0,1,211.106,106,29.451,29.451,0,0,1,188.315,114.765Zm-28.051,217.4V139.309c0-2.5,1-3.506,3.256-3.506h49.59c2.254,0,3.256,1.252,3.256,3.506V332.161c0,2.755-1,4.007-3.256,4.007H164.021C161.516,336.168,160.264,334.665,160.264,332.161Z" transform="translate(112.758 -51.9)" fill="#ff9a00"/>
    </g>
  </g>
</svg>
