<svg id="svg" xmlns="http://www.w3.org/2000/svg" width="525" height="600" viewBox="0 0 525 600">
  <path id="Path_401" data-name="Path 401" d="M133.5,0A37.61,37.61,0,0,0,96,37.5v525A37.61,37.61,0,0,0,133.5,600h375A37.61,37.61,0,0,0,546,562.5V150L396,0Z" transform="translate(-21)" fill="#e2e5e7"/>
  <path id="Path_402" data-name="Path 402" d="M389.5,150H502L352,0V112.5A37.61,37.61,0,0,0,389.5,150Z" transform="translate(23)" fill="#b0b7bd"/>
  <path id="Path_403" data-name="Path 403" d="M496.5,240.5,384,128H496.5Z" transform="translate(28.5 22)" fill="#cad1d8"/>
  <path id="Path_404" data-name="Path 404" d="M482,446.25A18.805,18.805,0,0,1,463.25,465H50.75A18.805,18.805,0,0,1,32,446.25V258.75A18.805,18.805,0,0,1,50.75,240h412.5A18.805,18.805,0,0,1,482,258.75Z" transform="translate(-32 41.25)" fill="#f7b84e"/>
  <g id="Group_422" data-name="Group 422" transform="translate(74.221 341.492)">
    <path id="Path_405" data-name="Path 405" d="M97.07,318.652c3.45-29.081,47.362-34.312,68.062-18.413,10.2,8.231-.6,21.281-9.6,14.681-11.1-7.05-36.281-10.35-39.431,5.231-4.05,24.6,61.162,10.519,60.131,50.381C175.183,408.615,120,409.514,99.3,392.414a11.075,11.075,0,0,1-2.1-14.681c3.9-3.881,8.25-5.231,13.35-1.05,12.281,8.4,43.931,14.7,46.162-6.619C154.783,347.9,92.42,361.252,97.07,318.652Z" transform="translate(-95.336 -291.406)" fill="#fff"/>
    <path id="Path_406" data-name="Path 406" d="M215.1,392.607l-39.581-82.912c-5.85-11.85,11.85-21.581,18.431-9.15l13.35,30.131,17.231,39.581,16.931-39.581,13.35-30.131c6-11.381,23.381-4.2,18.3,8.25l-38.231,83.813C231.428,402.057,220.8,404.288,215.1,392.607Z" transform="translate(-81.755 -290.83)" fill="#fff"/>
    <path id="Path_407" data-name="Path 407" d="M359.064,388.078c-10.65,8.831-23.7,12.6-36.881,12.6-31.5,0-53.831-18-53.831-53.681,0-30.281,23.55-53.812,55.162-53.812,11.85,0,24.881,4.05,34.181,13.2,9.131,8.981-4.05,22.331-13.031,14.4-5.55-5.419-13.35-9.45-21.15-9.45-18.131,0-35.663,14.531-35.663,35.663,0,22.2,14.681,35.681,34.331,35.681,9.131,0,16.931-2.7,22.481-6.75V357.515H322.183c-13.35,0-12-18.319,0-18.319h29.981c5.55,0,10.631,4.219,10.631,8.869V380C362.814,382.678,361.615,385.209,359.064,388.078Z" transform="translate(-65.598 -291.101)" fill="#fff"/>
  </g>
  <path id="Path_408" data-name="Path 408" d="M452.25,434.75H96V453.5H452.25A18.805,18.805,0,0,0,471,434.75V416A18.805,18.805,0,0,1,452.25,434.75Z" transform="translate(-21 71.5)" fill="#cad1d8"/>
</svg>
