<svg id="js" xmlns="http://www.w3.org/2000/svg" width="525" height="600" viewBox="0 0 525 600">
  <path id="Path_9" data-name="Path 9" d="M133.5,0A37.61,37.61,0,0,0,96,37.5v525A37.61,37.61,0,0,0,133.5,600h375A37.61,37.61,0,0,0,546,562.5V150L396,0Z" transform="translate(-21)" fill="#e2e5e7"/>
  <path id="Path_10" data-name="Path 10" d="M389.5,150H502L352,0V112.5A37.61,37.61,0,0,0,389.5,150Z" transform="translate(23)" fill="#b0b7bd"/>
  <path id="Path_11" data-name="Path 11" d="M496.5,240.5,384,128H496.5Z" transform="translate(28.5 22)" fill="#cad1d8"/>
  <path id="Path_12" data-name="Path 12" d="M517.266,446.25c0,10.313-9.1,18.75-20.219,18.75H52.219C41.1,465,32,456.563,32,446.25V258.75C32,248.437,41.1,240,52.219,240H497.046c11.121,0,20.219,8.437,20.219,18.75Z" transform="translate(-32 41.25)" fill="#576d7e"/>
  <g id="Group_2" data-name="Group 2" transform="translate(34.2 341.492)">
    <path id="Path_13" data-name="Path 13" d="M201.4,304.538c0-12.6,19.8-12.6,19.8,0v59.212c0,23.531-11.25,37.781-37.162,37.781-12.75,0-23.4-3.469-32.681-15.431-7.65-9.15,6.731-22.331,14.531-12.75,6.3,7.8,13.031,9.6,19.631,9.281,8.4-.3,15.75-4.05,15.9-18.881V304.538H201.4Z" transform="translate(-149.184 -290.774)" fill="#fff"/>
    <path id="Path_14" data-name="Path 14" d="M230.526,318.652c3.45-29.081,47.362-34.312,68.062-18.413,10.2,8.231-.6,21.281-9.6,14.681-11.1-7.05-36.281-10.35-39.431,5.231-4.05,24.6,61.162,10.519,60.113,50.381-1.05,38.081-56.212,38.981-76.912,21.881a11.075,11.075,0,0,1-2.1-14.681c3.9-3.881,8.231-5.231,13.35-1.05,12.281,8.4,43.931,14.7,46.181-6.619C288.239,347.9,225.876,361.252,230.526,318.652Z" transform="translate(-135.501 -291.406)" fill="#fff"/>
    <path id="Path_32" data-name="Path 32" d="M236.291,401.266c-27.731,1.2-56.531-17.25-56.531-53.981,0-36.881,28.781-55.013,56.531-55.013,26.231,1.331,53.662,19.481,53.662,55.013C289.954,382.835,262.522,401.266,236.291,401.266Zm-1.65-89.494c-16.8,0-35.081,11.85-35.081,35.531,0,23.55,18.3,35.55,35.081,35.55,17.25,0,35.681-12,35.681-35.55C270.323,323.6,251.891,311.772,234.641,311.772Z" transform="translate(8.415 -291.258)" fill="#fff"/>
    <path id="Path_33" data-name="Path 33" d="M178.979,306.173c0-5.419,1.2-10.65,9-10.65,5.381,0,6.6,1.35,10.631,5.231l49.613,62.081V304.673c0-4.95,4.331-10.369,9.45-10.369,5.4,0,10.631,5.419,10.631,10.369v84.394c0,6.619-4.05,9.131-7.95,10.35-5.231,0-7.8-1.2-12.131-5.231L198.61,331.2v57.881c0,6.619-4.05,10.35-9.45,10.35s-10.2-3.731-10.2-10.35V306.173Z" transform="translate(133.403 -287.771)" fill="#fff"/>
  </g>
  <path id="Path_15" data-name="Path 15" d="M485.752,434.75H96V453.5H485.752c11.282,0,20.513-8.438,20.513-18.75V416C506.265,426.313,497.035,434.75,485.752,434.75Z" transform="translate(-21 71.5)" fill="#cad1d8"/>
</svg>
