<svg id="mpg" xmlns="http://www.w3.org/2000/svg" width="525" height="600" viewBox="0 0 525 600">
  <path id="Path_16" data-name="Path 16" d="M133.5,0A37.61,37.61,0,0,0,96,37.5v525A37.61,37.61,0,0,0,133.5,600h375A37.61,37.61,0,0,0,546,562.5V150L396,0Z" transform="translate(-21)" fill="#e2e5e7"/>
  <path id="Path_17" data-name="Path 17" d="M389.5,150H502L352,0V112.5A37.61,37.61,0,0,0,389.5,150Z" transform="translate(23)" fill="#b0b7bd"/>
  <path id="Path_18" data-name="Path 18" d="M496.5,240.5,384,128H496.5Z" transform="translate(28.5 22)" fill="#cad1d8"/>
  <path id="Path_19" data-name="Path 19" d="M482,446.25A18.805,18.805,0,0,1,463.25,465H50.75A18.805,18.805,0,0,1,32,446.25V258.75A18.805,18.805,0,0,1,50.75,240h412.5A18.805,18.805,0,0,1,482,258.75Z" transform="translate(-32 41.25)" fill="#50bee8"/>
  <g id="Group_3" data-name="Group 3" transform="translate(63.9 344.888)">
    <path id="Path_20" data-name="Path 20" d="M106.309,333.6v55.462c0,6.619-5.381,10.35-10.8,10.35-4.8,0-8.981-3.731-8.981-10.35V304.673A10,10,0,0,1,95.509,294.3c4.35,0,6.9,2.569,9.45,5.419l33,44.513,34.162-46.181c4.969-6.131,17.1-3.75,17.1,6.619v84.394c0,6.619-4.219,10.35-9.019,10.35-5.381,0-9.6-3.731-9.6-10.35V333.6l-24.881,31.481c-5.381,6.619-12.131,6.619-17.081,0Z" transform="translate(-86.528 -294.304)" fill="#fff"/>
    <path id="Path_21" data-name="Path 21" d="M196.5,304.673A10.336,10.336,0,0,1,206.7,294.3h34.631c19.5,0,37.05,13.05,37.05,38.081,0,23.7-17.55,36.881-37.05,36.881H216.3v19.8c0,6.619-4.2,10.35-9.6,10.35a10.121,10.121,0,0,1-10.2-10.35V304.673Zm19.8,8.531v37.331h25.031c10.05,0,18-8.85,18-18.15,0-10.5-7.95-19.181-18-19.181Z" transform="translate(-67.627 -294.304)" fill="#fff"/>
  </g>
  <path id="Path_23" data-name="Path 23" d="M452.25,434.75H96V453.5H452.25A18.805,18.805,0,0,0,471,434.75V416A18.805,18.805,0,0,1,452.25,434.75Z" transform="translate(-21 71.5)" fill="#cad1d8"/>
  <path id="Path_48" data-name="Path 48" d="M284.273,476.642h-39.93c-3.408,0-6-2.439-6-6.334a7.353,7.353,0,0,1,.974-3.568l39.278-77.426a8.228,8.228,0,0,1,7.468-4.708c3.247,0,8.6,2.595,8.6,6.655a6.051,6.051,0,0,1-.808,2.6l-33.441,66.711h23.86v-22.4c0-4.06,4.221-5.681,8.6-5.681,4.221,0,8.6,1.621,8.6,5.681v22.4h7.955c3.895,0,5.842,4.06,5.842,8.116,0,3.895-2.76,7.955-5.842,7.955h-7.955V497.58c0,3.734-4.381,5.681-8.6,5.681-4.381,0-8.6-1.947-8.6-5.681Zm0,0" transform="translate(49.466 -53.262)" fill="#fff"/>
</svg>
