<svg id="Layer_2_1_" xmlns="http://www.w3.org/2000/svg" width="615.385" height="600" viewBox="0 0 615.385 600">
  <g id="Surfaces">
    <g id="Photo_Surface">
      <g id="Outline_no_shadow">
        <path id="Path_34" data-name="Path 34" d="M108.974,0H506.41A108.883,108.883,0,0,1,615.385,108.974V491.026A108.883,108.883,0,0,1,506.41,600H108.974A108.883,108.883,0,0,1,0,491.026V108.974A108.883,108.883,0,0,1,108.974,0Z" fill="#001e36"/>
      </g>
    </g>
  </g>
  <g id="Outlined_Mnemonics_Logos" transform="translate(155.225 163.044)">
    <g id="Ps">
      <path id="Path_35" data-name="Path 35" d="M54,306.211V63.51c0-1.651.708-2.594,2.359-2.594,4.01,0,7.783,0,13.208-.236,5.661-.236,11.557-.236,17.925-.472s13.208-.236,20.52-.472S122.4,59.5,129.476,59.5c19.341,0,35.379,2.359,48.587,7.312a84.227,84.227,0,0,1,31.605,19.341,75.1,75.1,0,0,1,17.218,26.888,90.276,90.276,0,0,1,5.425,30.662q0,30.426-14.152,50.238a80.806,80.806,0,0,1-37.974,28.775c-16.039,5.9-33.728,8.019-53.069,8.019-5.661,0-9.434,0-11.793-.236s-5.661-.236-10.142-.236v75.711a2.935,2.935,0,0,1-2.594,3.3H56.83C54.943,309.277,54,308.334,54,306.211Zm51.418-199.775v79.249c3.3.236,6.368.472,9.2.472h12.5a88.1,88.1,0,0,0,27.124-4.246,40.562,40.562,0,0,0,19.341-12.5c4.953-5.9,7.312-13.916,7.312-24.294a38.821,38.821,0,0,0-5.425-20.992,34.2,34.2,0,0,0-16.51-13.444,69.21,69.21,0,0,0-27.832-4.717c-6.132,0-11.557,0-16.039.236a54,54,0,0,0-9.67.236Z" transform="translate(-54 -59.5)" fill="#31a8ff"/>
      <path id="Path_36" data-name="Path 36" d="M262.258,137.6a83.48,83.48,0,0,0-22.643-8.019,124.334,124.334,0,0,0-26.416-3.066,47.488,47.488,0,0,0-14.152,1.651,12.111,12.111,0,0,0-7.312,4.717,12.5,12.5,0,0,0-1.887,6.368,10.491,10.491,0,0,0,2.359,6.132,26.616,26.616,0,0,0,8.019,6.368c5.425,2.83,11.085,5.425,16.746,7.783a170.834,170.834,0,0,1,36.323,17.218,54.881,54.881,0,0,1,18.633,19.576,50.916,50.916,0,0,1,5.425,24.294,54.878,54.878,0,0,1-9.2,31.37,59.105,59.105,0,0,1-26.417,20.992c-11.557,4.953-25.709,7.548-42.691,7.548a162.471,162.471,0,0,1-32.077-3.066,95.143,95.143,0,0,1-24.058-7.548,4.638,4.638,0,0,1-2.594-4.481V224.4a2.561,2.561,0,0,1,.943-2.123,1.8,1.8,0,0,1,2.123.236,100.964,100.964,0,0,0,29.247,11.557,109.8,109.8,0,0,0,27.832,3.538c8.963,0,15.331-1.179,19.577-3.3a10.957,10.957,0,0,0,6.368-9.906c0-3.3-1.887-6.368-5.661-9.434s-11.557-6.6-23.114-11.085A144.309,144.309,0,0,1,164.139,186.9a61.072,61.072,0,0,1-17.926-20.048,50.609,50.609,0,0,1-5.425-24.058,55.474,55.474,0,0,1,8.019-28.539,58.139,58.139,0,0,1,24.765-21.7c11.085-5.661,25-8.255,41.747-8.255a203.336,203.336,0,0,1,29.247,2.123,82.991,82.991,0,0,1,20.284,5.425,4.143,4.143,0,0,1,2.359,2.123,11.838,11.838,0,0,1,.472,2.83v38.445A2.9,2.9,0,0,1,266.5,137.6C264.38,138.076,263.2,138.076,262.258,137.6Z" transform="translate(63.231 -25.806)" fill="#31a8ff"/>
    </g>
  </g>
</svg>
