<svg xmlns="http://www.w3.org/2000/svg" width="60" height="60" viewBox="0 0 60 60">
    <g fill="none" fill-rule="evenodd">
        <circle cx="30" cy="30" r="29" fill-rule="nonzero" stroke="#0A0A0A" stroke-width="2"/>
        <path fill="#CE0033" d="M45 46.79l-4.4-13.92c4.35-4.768 4.926-11.874 1.4-17.28l-.11-.17-1.24 1.4.06.09c3.26 5.4 1.986 12.384-2.972 16.285-4.958 3.9-12.046 3.495-16.527-.945-4.481-4.44-4.952-11.523-1.097-16.517C23.968 10.739 30.94 9.4 36.37 12.61l.11.06 1.21-1.35-.16-.1c-6.027-3.712-13.866-2.426-18.391 3.017-4.525 5.443-4.359 13.385.391 18.633l-4.4 13.92c-.1.327-.007.683.24.918.249.235.609.31.93.192l5.29-2 3.31 4.63c.198.284.543.427.884.367.342-.06.617-.312.706-.647l3.53-12.7h.12l3.53 12.7c.093.329.364.577.7.64h.16c.288 0 .559-.138.73-.37l3.31-4.63 5.29 2c.32.124.684.05.93-.19.234-.24.315-.591.21-.91zM38.47 44c-.365-.131-.773-.005-1 .31L34.81 48l-2.93-10.56c2.664-.354 5.173-1.46 7.23-3.19l3.57 11.32L38.47 44zm-10.35-6.56L25.19 48l-2.62-3.66c-.165-.24-.439-.382-.73-.38-.106 0-.211.02-.31.06l-4.21 1.58 3.57-11.32c2.063 1.716 4.57 2.812 7.23 3.16z"/>
        <path fill="#000" fill-rule="nonzero" d="M39.43 20.38c-.106-.323-.384-.559-.72-.61L33.25 19l-2.45-5c-.154-.298-.465-.48-.8-.47-.336-.013-.648.17-.8.47l-2.45 5-5.46.79c-.339.044-.62.283-.72.61-.11.323-.024.68.22.92l4 3.85-.94 5.44c-.053.337.086.676.36.88.155.11.34.169.53.17.142-.004.282-.038.41-.1L30 29l4.89 2.56c.3.156.662.133.94-.06.276-.202.412-.544.35-.88l-.93-5.44 4-3.85c.242-.254.312-.626.18-.95zm-6 4.61l.7 4.11-3.69-1.94c-.264-.134-.576-.134-.84 0l-3.71 1.94.7-4.11c.054-.289-.04-.585-.25-.79l-3-2.92 4.13-.6c.292-.04.544-.224.67-.49L30 16.45l1.85 3.74c.126.266.378.45.67.49l4.13.6-3 2.92c-.21.21-.3.51-.24.8l.02-.01z"/>
        <path fill="#FFF" fill-rule="nonzero" d="M39.44 15.22l.12.14L40.75 14l-.09-.1c-.455-.527-.95-1.018-1.48-1.47l-.12-.09-1.19 1.33.12.11c.525.436 1.01.918 1.45 1.44z"/>
    </g>
</svg>
