<svg xmlns="http://www.w3.org/2000/svg" width="60" height="60" viewBox="0 0 60 60">
    <g fill="none">
        <path fill="#000" d="M23.11 41.9v-5.71c0-.403-.327-.73-.73-.73h-5.84c-.349.06-.6.367-.59.72v5.72c0 .4.32.725.72.73h5.71c.403 0 .73-.327.73-.73zm-1.45-5v4.26H17.4v-4.25l4.26-.01zM32.86 42.63c.4-.005.72-.33.72-.73v-5.71c.005-.36-.254-.67-.61-.73H27.1c-.381.031-.676.347-.68.73v5.71c0 .4.32.725.72.73h5.72zm-5-1.46v-4.26h4.26v4.26h-4.26z"/>
        <path fill="#CE0033" d="M50.13 26.42h-2.27v-4c-.022-1.125-.584-2.17-1.51-2.81-.582-.405-1.21-.74-1.87-1 .785-1.293.673-2.941-.281-4.116-.955-1.174-2.544-1.622-3.971-1.118s-2.383 1.85-2.388 3.364c-.003.66.18 1.31.53 1.87-.661.257-1.289.593-1.87 1-.296.217-.562.472-.79.76-.228-.288-.494-.543-.79-.76-.581-.407-1.209-.743-1.87-1 .35-.56.533-1.21.53-1.87 0-1.279-.682-2.46-1.79-3.1-1.108-.64-2.472-.64-3.58 0s-1.79 1.821-1.79 3.1c.025.642.225 1.265.58 1.8-.663.259-1.294.595-1.88 1-.291.22-.553.475-.78.76-.228-.288-.494-.543-.79-.76-.581-.407-1.209-.743-1.87-1 .35-.56.533-1.21.53-1.87.01-1.526-.946-2.892-2.383-3.405-1.438-.513-3.042-.06-4 1.127-.96 1.188-1.062 2.851-.257 4.148-.661.257-1.289.593-1.87 1-.926.64-1.488 1.685-1.51 2.81v4H10c-.4 0-.725.32-.73.72v4.83c0 .403.327.73.73.73h1.18v13.55c0 .4.32.725.72.73h4.92v-1.45h-4.18V32.63h34.72v12.83h-26v1.45h26.73c.4-.005.72-.33.72-.73V32.63H50c.403 0 .73-.327.73-.73v-4.75c.002-.356-.25-.663-.6-.73zM18.58 14.54c1.176 0 2.13.954 2.13 2.13s-.954 2.13-2.13 2.13-2.13-.954-2.13-2.13c.005-1.174.956-2.125 2.13-2.13zm-2.26 5.25l.15-.07c.05-.011.097-.032.14-.06 1.196.785 2.744.785 3.94 0l.11.06.17.08c.468.184.923.4 1.36.65.148.085.292.179.43.28.574.359.928.983.94 1.66v4h-10v-4c.012-.677.366-1.301.94-1.66.567-.386 1.178-.701 1.82-.94zM30 18.8c-1.176 0-2.13-.954-2.13-2.13s.954-2.13 2.13-2.13 2.13.954 2.13 2.13-.954 2.13-2.13 2.13zm-2.26 1l.15-.07c.05-.01.098-.03.14-.06 1.2.784 2.75.784 3.95 0 .03.03.069.05.11.06l.16.07c.63.243 1.232.559 1.79.94.597.344.975.971 1 1.66v4H25v-4c.018-.696.397-1.332 1-1.68.542-.377 1.126-.69 1.74-.93v.01zm13.68-1c-1.176 0-2.13-.954-2.13-2.13s.954-2.13 2.13-2.13 2.13.954 2.13 2.13-.954 2.13-2.13 2.13zm-2.25 1l.14-.06c.05-.01.098-.03.14-.06 1.2.784 2.75.784 3.95 0 .03.03.069.05.11.06l.17.08c.631.238 1.232.55 1.79.93.574.359.928.983.94 1.66v4h-10v-4c.012-.677.366-1.301.94-1.66.568-.392 1.178-.717 1.82-.97v.02zm10.09 8.09v3.31H10.73v-3.33l38.53.02z"/>
        <path fill="#000" d="M43.33 42.63c.4-.005.72-.33.72-.73v-5.71c.005-.36-.254-.67-.61-.73h-5.87c-.381.031-.676.347-.68.73v5.71c0 .403.327.73.73.73h5.71zm-5-1.46v-4.26h4.27v4.26h-4.27z"/>
        <path fill="#FFF" d="M18 45.46H20.17V46.910000000000004H18z"/>
        <circle cx="30" cy="30" r="29" stroke="#0A0A0A" stroke-width="2"/>
    </g>
</svg>
