<svg xmlns="http://www.w3.org/2000/svg" width="60" height="60" viewBox="0 0 60 60">
    <g fill="none">
        <path fill="#CE0033" d="M41.2 12.33c1.298 0 2.35 1.052 2.35 2.35v13.55h-1.18V14.68c0-.646-.524-1.17-1.17-1.17h-2.38c-.312-.003-.612.12-.834.34-.221.219-.346.518-.346.83v1.77c0 .652.528 1.18 1.18 1.18.652 0 1.18-.528 1.18-1.18v-.59h-1.16v-1.18h1.77c.324.005.585.266.59.59v1.21c0 1.303-1.057 2.36-2.36 2.36H16.45v20h7.07c.093 0 .185.021.27.06l2.35 1.23c.117.058.212.153.27.27.138.293.018.643-.27.79l-2.35 1.18c-.088.024-.182.024-.27 0h-7.07v1.77h11.78v1.18H15.86c-.156 0-.307-.062-.417-.173-.11-.11-.173-.26-.173-.417v-2.36l-.59-.03c-.923-.07-1.637-.839-1.637-1.765 0-.926.714-1.695 1.637-1.765h.59v-20c-1.3-.006-2.35-1.06-2.35-2.36v-1.77c0-1.298 1.052-2.35 2.35-2.35zM23.38 40h-.45v1.2h.45l1.18-.59-1.18-.61zm-1.63.02h-7.07c-.156 0-.305.062-.414.173-.109.111-.169.261-.166.417 0 .322.258.585.58.59h7.07v-1.18zm4.13-5.89v1.18h-7.66v-1.18h7.66zM14.1 21.17v11.78h-1.18V21.17h1.18zm13.55 10.6v1.18h-9.43v-1.18h9.43zm-7.07-2.36v1.18H19.4v-1.18h1.18zm7.06 0v1.18h-5.89v-1.18h5.89zM41.2 19.4v9.43h-1.18V19.4h1.18zm-22.85 3.07c2.253-2.26 5.82-2.531 8.39-.64l1.08-1.08c.109-.109.256-.17.41-.17h7.66v1.17h-7.41l-.85.85c1.143 1.204 1.78 2.8 1.78 4.46 0 .326-.264.59-.59.59h-5.89c-.155-.004-.302-.068-.41-.18l-4.17-4.16c-.229-.233-.229-.607 0-.84zm7.57.2c-1.918-1.31-4.467-1.213-6.28.24l3.56 3.56h5c-.124-1.135-.608-2.2-1.38-3.04l-1.68 1.69-.84-.84zm12.33 2.62v1.18h-7.07v-1.18h7.07zm-5.89-2.36v1.18h-1.18v-1.18h1.18zm5.89 0v1.18h-4.71v-1.18h4.71zm0-2.35v1.18h-1.18v-1.18h1.18zm-1.44-7.07H15.27c-.646 0-1.17.524-1.17 1.17v1.77c-.003.312.12.612.34.834.219.221.518.346.83.346h21.54c-.209-.359-.322-.765-.33-1.18v-1.77c.008-.412.121-.815.33-1.17z"/>
        <path fill="#000" d="M46.64 35.79l-1.85-.46c-.153-.512-.358-1.008-.61-1.48l1-1.63c.139-.232.101-.529-.09-.72l-1.84-1.84c-.191-.191-.488-.229-.72-.09l-1.63 1c-.21-.11-.43-.22-.65-.31-.27-.12-.547-.22-.83-.3l-.46-1.85c-.065-.261-.3-.443-.57-.44h-2.6c-.268 0-.502.181-.57.44l-.46 1.85c-.51.151-1.003.356-1.47.61l-1.64-1c-.232-.139-.529-.101-.72.09l-1.86 1.84c-.191.191-.229.488-.09.72l1 1.63c-.248.474-.453.969-.61 1.48l-1.85.46c-.261.065-.443.3-.44.57V39c-.003.27.179.505.44.57l1.85.46c.166.498.377.98.63 1.44l-1 1.63c-.139.232-.101.529.09.72l1.84 1.84c.191.191.488.229.72.09l1.63-1c.474.248.969.453 1.48.61l.46 1.85c.065.261.3.443.57.44h2.6c.27.003.505-.179.57-.44l.46-1.85c.511-.157 1.006-.362 1.48-.61l1.63 1c.232.139.529.101.72-.09l1.84-1.84c.191-.191.229-.488.09-.72l-1-1.63c.248-.47.452-.962.61-1.47l1.85-.46c.261-.065.443-.3.44-.57v-2.6c.004-.272-.177-.511-.44-.58zm-8.73-6.96l.44 1.74c.051.21.212.374.42.43.64.16 1.253.412 1.82.75.185.11.415.11.6 0l1.53-.92L43.91 32 43 33.54c-.11.185-.11.415 0 .6.341.58.594 1.206.75 1.86.052.21.218.373.43.42l1.73.44v1.64l-1.73.43c-.212.053-.377.218-.43.43-.164.639-.417 1.251-.75 1.82-.11.185-.11.415 0 .6l.92 1.53-1.19 1.19-1.53-.92c-.189-.109-.421-.109-.61 0-.565.337-1.174.593-1.81.76-.212.053-.377.218-.43.43l-.44 1.73h-1.68l-.43-1.74c-.052-.21-.218-.373-.43-.42-.637-.166-1.246-.421-1.81-.76-.189-.109-.421-.109-.61 0l-1.53.92-1.19-1.18.92-1.53c.109-.189.109-.421 0-.61-.338-.567-.59-1.18-.75-1.82-.056-.208-.22-.369-.43-.42l-1.74-.44v-1.68l1.77-.43c.19-.056.339-.202.4-.39.158-.638.41-1.248.75-1.81.109-.189.109-.421 0-.61L30.23 32l1.19-1.19 1.53.92c.185.11.415.11.6 0 .568-.33 1.18-.577 1.82-.73.208-.056.369-.22.42-.43l.44-1.74h1.68zM37.07 33c-2.6.006-4.704 2.117-4.7 4.717.004 2.6 2.113 4.705 4.713 4.703 2.6-.002 4.707-2.11 4.707-4.71 0-1.25-.498-2.45-1.383-3.334-.886-.884-2.086-1.379-3.337-1.376zm0 1.17c1.955 0 3.54 1.585 3.54 3.54-.027 1.936-1.604 3.49-3.54 3.49v.05c-1.955 0-3.54-1.585-3.54-3.54s1.585-3.54 3.54-3.54z"/>
        <circle cx="30" cy="30" r="29" stroke="#0A0A0A" stroke-width="2"/>
    </g>
</svg>
